<svg width="272" height="56" viewBox="0 0 272 56" fill="none" xmlns="http://www.w3.org/2000/svg">
<g clip-path="url(#clip0_6430_1494)">
<rect width="60.1482" height="56" transform="translate(0.296265)" fill="white"/>
<rect width="60.1482" height="56" transform="translate(0.296265)" fill="url(#paint0_linear_6430_1494)"/>
<path d="M25.3157 26.4171H26.1351C28.8874 26.4171 31.9841 25.8877 31.9841 22.2794C31.9841 18.671 28.8874 18.1428 26.1351 18.1428H25.3157V26.4171ZM43.8517 44.7264H33.3574L25.4041 31.963H25.3163L16.8949 44.7261L16.8887 31.963V11.5413H29.4905C35.8949 11.5413 40.7561 14.6662 40.7561 21.7532C40.7561 26.3309 38.2636 30.2911 33.662 31.1266L43.8517 44.7264Z" fill="white"/>
<g clip-path="url(#clip1_6430_1494)">
<path d="M107.612 35.2593H102.978L99.4269 29.6755V35.2593H95.7037V20.7424H101.494C102.207 20.7271 102.916 20.8478 103.585 21.0981C104.125 21.2991 104.615 21.6179 105.02 22.0319C105.425 22.446 105.736 22.9452 105.93 23.4943C106.129 24.0493 106.229 24.636 106.225 25.2267C106.268 26.1869 105.99 27.1339 105.436 27.9139C104.846 28.641 104.022 29.1348 103.109 29.3091L107.612 35.2593ZM99.4269 27.2317H100.129C100.727 27.2709 101.322 27.1084 101.819 26.7697C102.004 26.603 102.153 26.3984 102.254 26.1695C102.355 25.9405 102.408 25.6925 102.408 25.4415C102.408 25.1906 102.355 24.9424 102.254 24.7135C102.153 24.4846 102.004 24.28 101.819 24.1133C101.322 23.7745 100.727 23.6121 100.129 23.6513H99.4269V27.2317Z" fill="white"/>
<path d="M121.74 32.7368H116.423L115.568 35.2593H111.599L117.049 20.7423H121.113L126.563 35.2593H122.594L121.74 32.7368ZM120.753 29.8695L119.082 25.0356L117.411 29.8695H120.753Z" fill="white"/>
<path d="M136.802 23.9377V35.2593H133.078V23.9377H130.02V20.7423H139.858V23.9377H136.802Z" fill="white"/>
<path d="M153.457 23.9377H149.032V26.363H153.211V29.5584H149.032V32.0608H153.457V35.2577H145.31V20.7407H153.457V23.9377Z" fill="white"/>
<path d="M163.656 26.3446H169.03V20.7423H172.753V35.2593H169.03V29.2704H163.656V35.2593H159.94V20.7423H163.663L163.656 26.3446Z" fill="white"/>
<path d="M188.305 32.7368H182.989L182.133 35.2593H178.164L183.615 20.7423H187.68L193.13 35.2593H189.161L188.305 32.7368ZM187.318 29.8695L185.647 25.0356L183.976 29.8695H187.318Z" fill="white"/>
<path d="M197.915 35.2593L200.345 20.7423H204.029L206.897 28.482L209.745 20.7423H213.43L215.861 35.2593H212.157L210.922 26.9036L207.543 35.2593H206.061L202.852 26.9036L201.617 35.2593H197.915Z" fill="white"/>
<path d="M221.369 35.2593L223.799 20.7423H227.483L230.351 28.482L233.199 20.7423H236.885L239.315 35.2593H235.61L234.375 26.9036L230.995 35.2593H229.514L226.304 26.9036L225.069 35.2593H221.369Z" fill="white"/>
<path d="M253.618 23.9377H249.198V26.363H253.375V29.5584H249.198V32.0608H253.623V35.2577H245.475V20.7407H253.623L253.618 23.9377Z" fill="white"/>
<path d="M272 35.2592H267.367L263.815 29.6754V35.2592H260.094V20.7422H265.886C266.598 20.727 267.306 20.8477 267.974 21.098C268.515 21.2989 269.005 21.6176 269.41 22.0316C269.815 22.4457 270.126 22.945 270.32 23.4941C270.519 24.0493 270.619 24.6359 270.615 25.2266C270.658 26.1868 270.38 27.1337 269.826 27.9137C269.236 28.6406 268.412 29.1344 267.499 29.3089L272 35.2592ZM263.814 27.2315H264.517C265.115 27.2706 265.709 27.1082 266.206 26.7695C266.391 26.6028 266.539 26.3982 266.641 26.1693C266.742 25.9404 266.795 25.6923 266.795 25.4414C266.795 25.1904 266.742 24.9423 266.641 24.7134C266.539 24.4844 266.391 24.2799 266.206 24.1131C265.709 23.7745 265.115 23.6121 264.517 23.6512H263.814V27.2315Z" fill="white"/>
</g>
</g>
<defs>
<linearGradient id="paint0_linear_6430_1494" x1="60.1482" y1="-1.66893e-06" x2="4.21836" y2="58.9914" gradientUnits="userSpaceOnUse">
<stop stop-color="#0000F8"/>
<stop offset="1" stop-color="#FF0077"/>
</linearGradient>
<clipPath id="clip0_6430_1494">
<rect width="271.704" height="56" fill="white"/>
</clipPath>
<clipPath id="clip1_6430_1494">
<rect width="176.296" height="14.5185" fill="white" transform="translate(95.7037 20.7407)"/>
</clipPath>
</defs>
</svg>
