<svg width="80" height="80" viewBox="0 0 80 80" fill="none" xmlns="http://www.w3.org/2000/svg">
<path d="M32.3337 37.6666C31.0003 36.3333 29.0003 36.3333 27.667 37.6666C26.3337 38.9999 26.3337 40.9999 27.667 42.3333L37.667 52.3333C38.3337 52.9999 39.0003 53.3333 40.0003 53.3333C41.0003 53.3333 41.667 52.9999 42.3337 52.3333L65.667 25.6666C66.667 23.9999 66.667 21.9999 65.0003 20.9999C63.667 19.9999 61.667 19.9999 60.667 21.3333L40.0003 44.9999L32.3337 37.6666Z" fill="#22C55E"/>
<path d="M70.0003 36.6666C68.0003 36.6666 66.667 38 66.667 40C66.667 54.6666 54.667 66.6666 40.0003 66.6666C25.3337 66.6666 13.3337 54.6666 13.3337 40C13.3337 33 16.0003 26.3333 21.0003 21.3333C26.0003 16 32.667 13.3333 40.0003 13.3333C42.0003 13.3333 44.3337 13.6666 46.3337 14C48.0003 14.6666 50.0003 13.6666 50.667 11.6666C51.3337 9.66663 50.0003 8.33329 48.3337 7.66663H48.0003C45.3337 6.99996 42.667 6.66663 40.0003 6.66663C21.667 6.66663 6.66699 21.6666 6.66699 40.3333C6.66699 49 10.3337 57.6666 16.3337 63.6666C22.667 70 31.0003 73.3333 39.667 73.3333C58.0003 73.3333 73.0003 58.3333 73.0003 40C73.3337 38 71.667 36.6666 70.0003 36.6666Z" fill="#22C55E"/>
</svg>
