<svg width="159" height="160" viewBox="0 0 159 160" fill="none" xmlns="http://www.w3.org/2000/svg">
<g opacity="0.5">
<circle cx="54.314" cy="105.459" r="17.4257" transform="rotate(-90 54.314 105.459)" stroke="#8F4DEA" stroke-width="2.26308"/>
<circle cx="3.84724" cy="3.84724" r="2.7157" transform="matrix(-4.37114e-08 -1 -1 4.37114e-08 7.69446 58.387)" fill="#8F4DEA" stroke="#8F4DEA" stroke-width="2.26308"/>
<circle cx="3.84724" cy="3.84724" r="2.7157" transform="matrix(-4.37114e-08 -1 -1 4.37114e-08 57.0297 58.387)" fill="#8F4DEA" stroke="#8F4DEA" stroke-width="2.26308"/>
<circle cx="3.84724" cy="3.84724" r="2.7157" transform="matrix(-4.37114e-08 -1 -1 4.37114e-08 108.628 58.387)" fill="#8F4DEA" stroke="#8F4DEA" stroke-width="2.26308"/>
<circle cx="3.84724" cy="3.84724" r="2.7157" transform="matrix(-4.37114e-08 -1 -1 4.37114e-08 158.416 109.307)" fill="#8F4DEA" stroke="#8F4DEA" stroke-width="2.26308"/>
<circle cx="3.84724" cy="3.84724" r="2.7157" transform="matrix(-4.37114e-08 -1 -1 4.37114e-08 108.628 109.081)" fill="#8F4DEA" stroke="#8F4DEA" stroke-width="2.26308"/>
<circle cx="3.84724" cy="3.84724" r="2.7157" transform="matrix(-4.37114e-08 -1 -1 4.37114e-08 158.416 160)" fill="#8F4DEA" stroke="#8F4DEA" stroke-width="2.26308"/>
<circle cx="3.84724" cy="3.84724" r="2.7157" transform="matrix(-4.37114e-08 -1 -1 4.37114e-08 7.69446 7.69452)" fill="#8F4DEA" stroke="#8F4DEA" stroke-width="2.26308"/>
<circle cx="3.84724" cy="3.84724" r="2.7157" transform="matrix(-4.37114e-08 -1 -1 4.37114e-08 57.0297 7.69452)" fill="#8F4DEA" stroke="#8F4DEA" stroke-width="2.26308"/>
<circle cx="3.84724" cy="3.84724" r="2.7157" transform="matrix(-4.37114e-08 -1 -1 4.37114e-08 108.628 7.69452)" fill="#8F4DEA" stroke="#8F4DEA" stroke-width="2.26308"/>
<circle cx="3.84724" cy="3.84724" r="2.7157" transform="matrix(-4.37114e-08 -1 -1 4.37114e-08 158.416 58.614)" fill="#8F4DEA" stroke="#8F4DEA" stroke-width="2.26308"/>
</g>
</svg>
